<svg width="145" height="114" viewBox="0 0 145 114" fill="none" xmlns="http://www.w3.org/2000/svg">
<path d="M26.7863 27L16.2023 0.36H10.8383L0.146266 27H7.45427L8.85827 23.148H18.1103L19.4063 27H26.7863ZM16.3103 17.748H10.7303L13.4663 8.64L13.5743 8.676L16.3103 17.748ZM35.2035 27V15.984C35.2035 13.716 36.3555 12.384 39.9195 12.348V6.336C37.6155 6.336 35.9595 7.02 34.9155 9.144H34.8435V7.02H29.2275V27H35.2035ZM62.2204 14.724C61.1044 9.648 56.8204 6.336 51.5644 6.336C45.8044 6.336 41.0884 10.98 41.0884 16.956C41.0884 22.86 45.7684 27.648 51.6724 27.648C56.7844 27.648 61.0684 24.408 62.2564 19.404H56.1724C55.2724 21.132 53.8684 22.068 51.8524 22.068C49.0804 22.068 47.1004 19.908 47.1004 16.992C47.1004 14.184 48.9724 11.916 51.7084 11.916C53.7604 11.916 55.3084 12.852 56.1724 14.724H62.2204ZM83.5214 27V14.436C83.5214 9.216 80.7494 6.336 76.1774 6.336C73.8014 6.336 71.8574 7.308 70.9934 8.928V0.36H65.0174V27H70.9934V15.768C70.9934 13.284 72.0734 11.952 74.3414 11.952C76.5374 11.952 77.5454 13.428 77.5454 16.02V27H83.5214ZM107.564 18.828C107.672 18.288 107.708 17.82 107.708 17.244C107.708 11.052 103.136 6.336 97.1595 6.336C91.2915 6.336 86.6835 11.304 86.6835 17.064C86.6835 23.004 91.5075 27.648 97.2675 27.648C101.48 27.648 105.116 25.092 107.024 20.736H100.904C99.9315 21.996 98.8875 22.608 97.2675 22.608C94.8195 22.608 92.9115 21.096 92.5875 18.828H107.564ZM92.6595 14.796C93.1275 12.672 94.9995 11.376 97.1595 11.376C99.4635 11.376 101.264 12.744 101.732 14.796H92.6595ZM116.977 27V15.984C116.977 13.716 118.129 12.384 121.693 12.348V6.336C119.389 6.336 117.733 7.02 116.689 9.144H116.617V7.02H111.001V27H116.977ZM134.016 33.66L144.024 7.02H137.688L133.872 18.612H133.8L129.804 7.02H123.432L130.848 25.992L127.68 33.66H134.016ZM39.1817 51.136C39.1457 47.572 37.7777 45.448 34.9337 43.972C33.5297 43.252 31.9817 42.856 30.2177 42.856C25.3217 42.856 20.9297 46.168 20.9297 50.704C20.9297 54.16 22.9097 56.464 27.2657 58.228C29.6777 59.2 32.6297 60.136 32.6297 62.26C32.6297 63.7 31.4777 64.816 30.0737 64.816C28.3817 64.816 27.3017 63.376 27.2657 61.18H20.4977V61.756C20.4977 67.48 24.3137 70.504 30.1097 70.504C35.8697 70.504 39.3977 67.48 39.3977 62.332C39.3977 58.84 37.9217 56.716 32.0537 54.196C29.1377 52.936 27.6977 52.216 27.6977 50.632C27.6977 49.444 28.7777 48.544 30.0377 48.544C31.3697 48.544 32.1617 49.228 32.4497 51.136H39.1817ZM63.0817 57.724C61.9657 52.648 57.6817 49.336 52.4257 49.336C46.6657 49.336 41.9497 53.98 41.9497 59.956C41.9497 65.86 46.6297 70.648 52.5337 70.648C57.6457 70.648 61.9297 67.408 63.1177 62.404H57.0337C56.1337 64.132 54.7297 65.068 52.7137 65.068C49.9417 65.068 47.9617 62.908 47.9617 59.992C47.9617 57.184 49.8337 54.916 52.5697 54.916C54.6217 54.916 56.1697 55.852 57.0337 57.724H63.0817ZM86.9981 59.92C86.9981 53.872 82.2461 49.372 76.2341 49.372C70.2581 49.372 65.4701 53.8 65.4701 59.992C65.4701 66.112 70.1501 70.612 76.2341 70.612C82.2461 70.612 86.9981 66.184 86.9981 59.92ZM76.2341 65.032C73.5341 65.032 71.4461 62.728 71.4461 59.992C71.4461 57.256 73.5701 54.952 76.1981 54.952C79.0061 54.952 81.0221 57.328 81.0221 59.992C81.0221 62.656 79.0421 65.032 76.2341 65.032ZM96.3227 70V58.984C96.3227 56.716 97.4747 55.384 101.039 55.348V49.336C98.7347 49.336 97.0787 50.02 96.0347 52.144H95.9627V50.02H90.3467V70H96.3227ZM122.98 61.828C123.088 61.288 123.124 60.82 123.124 60.244C123.124 54.052 118.552 49.336 112.576 49.336C106.708 49.336 102.1 54.304 102.1 60.064C102.1 66.004 106.924 70.648 112.684 70.648C116.896 70.648 120.532 68.092 122.44 63.736H116.32C115.348 64.996 114.304 65.608 112.684 65.608C110.236 65.608 108.328 64.096 108.004 61.828H122.98ZM108.076 57.796C108.544 55.672 110.416 54.376 112.576 54.376C114.88 54.376 116.68 55.744 117.148 57.796H108.076ZM56.918 94.136C56.882 90.572 55.514 88.448 52.67 86.972C51.266 86.252 49.718 85.856 47.954 85.856C43.058 85.856 38.666 89.168 38.666 93.704C38.666 97.16 40.646 99.464 45.002 101.228C47.414 102.2 50.366 103.136 50.366 105.26C50.366 106.7 49.214 107.816 47.81 107.816C46.118 107.816 45.038 106.376 45.002 104.18H38.234V104.756C38.234 110.48 42.05 113.504 47.846 113.504C53.606 113.504 57.134 110.48 57.134 105.332C57.134 101.84 55.658 99.716 49.79 97.196C46.874 95.936 45.434 95.216 45.434 93.632C45.434 92.444 46.514 91.544 47.774 91.544C49.106 91.544 49.898 92.228 50.186 94.136H56.918ZM80.458 104.828C80.566 104.288 80.602 103.82 80.602 103.244C80.602 97.052 76.03 92.336 70.054 92.336C64.186 92.336 59.578 97.304 59.578 103.064C59.578 109.004 64.402 113.648 70.162 113.648C74.374 113.648 78.01 111.092 79.918 106.736H73.798C72.826 107.996 71.782 108.608 70.162 108.608C67.714 108.608 65.806 107.096 65.482 104.828H80.458ZM65.554 100.796C66.022 98.672 67.894 97.376 70.054 97.376C72.358 97.376 74.158 98.744 74.626 100.796H65.554ZM103.731 104.828C103.839 104.288 103.875 103.82 103.875 103.244C103.875 97.052 99.3035 92.336 93.3275 92.336C87.4595 92.336 82.8515 97.304 82.8515 103.064C82.8515 109.004 87.6755 113.648 93.4355 113.648C97.6475 113.648 101.283 111.092 103.191 106.736H97.0715C96.0995 107.996 95.0555 108.608 93.4355 108.608C90.9875 108.608 89.0795 107.096 88.7555 104.828H103.731ZM88.8275 100.796C89.2955 98.672 91.1675 97.376 93.3275 97.376C95.6315 97.376 97.4315 98.744 97.8995 100.796H88.8275ZM114.369 113V97.556H117.249V93.02H114.369V86.36H108.393V93.02H105.441V97.556H108.393V113H114.369Z" fill="black"/>
</svg>
